<?xml version="1.0" standalone="no"?>
<!DOCTYPE svg PUBLIC "-//W3C//DTD SVG 20010904//EN"
 "http://www.w3.org/TR/2001/REC-SVG-20010904/DTD/svg10.dtd">
<svg version="1.0" xmlns="http://www.w3.org/2000/svg"
 width="1000.000000pt" height="1000.000000pt" viewBox="0 0 1000.000000 1000.000000"
 preserveAspectRatio="xMidYMid meet">

<g transform="translate(0.000000,1000.000000) scale(0.100000,-0.100000)"
fill="#000000" stroke="none">
<path d="M186 9973 c-28 -138 -56 -506 -56 -733 0 -1137 394 -2223 1129 -3110
122 -148 463 -489 611 -611 772 -640 1670 -1013 2675 -1111 166 -16 711 -16
870 0 1022 105 1896 468 2675 1110 146 121 488 462 611 612 637 769 1011 1665
1109 2660 33 341 16 928 -36 1183 l-6 27 -4788 0 -4788 0 -6 -27z"/>
</g>
</svg>
